<?xml version="1.0" encoding="UTF-8" standalone="no"?>
<svg
   version="1.1"
   width="639.95892"
   height="719.84277"
   preserveAspectRatio="none"
   viewBox="0 0 639.95892 719.84277"
   id="svg5"
   sodipodi:docname="bg.svg"
   inkscape:version="1.3.2 (091e20e, 2023-11-25, custom)"
   inkscape:export-filename="bg.svg"
   inkscape:export-xdpi="96"
   inkscape:export-ydpi="96"
   xmlns:inkscape="http://www.inkscape.org/namespaces/inkscape"
   xmlns:sodipodi="http://sodipodi.sourceforge.net/DTD/sodipodi-0.dtd"
   xmlns="http://www.w3.org/2000/svg"
   xmlns:svg="http://www.w3.org/2000/svg">
  <sodipodi:namedview
     id="namedview5"
     pagecolor="#ffffff"
     bordercolor="#000000"
     borderopacity="0.25"
     inkscape:showpageshadow="false"
     inkscape:pageopacity="0.0"
     inkscape:pagecheckerboard="0"
     inkscape:deskcolor="#d1d1d1"
     showborder="false"
     borderlayer="false"
     shape-rendering="crispEdges"
     inkscape:zoom="1"
     inkscape:cx="267.5"
     inkscape:cy="414.5"
     inkscape:window-width="1920"
     inkscape:window-height="1137"
     inkscape:window-x="1912"
     inkscape:window-y="-8"
     inkscape:window-maximized="1"
     inkscape:current-layer="g4"
     labelstyle="default"
     inkscape:clip-to-page="true" />
  <g
     mask="url(#SvgjsMask2054)"
     fill="none"
     id="g4"
     transform="translate(-0.04239588,-0.06764584)">
    <rect
       width="640"
       height="720"
       x="0"
       y="0"
       fill="#0e2a47"
       id="rect1" />
    <g
       id="g5"
       transform="matrix(0.80202463,0,0,0.82210735,89.133733,104.06624)"
       inkscape:label="g5"
       sodipodi:insensitive="true"
       style="display:inline">
      <path
         d="m 0,-115 99.6,57.5 v 115 L 0,115 -99.6,57.5 v -115 z M 99.6,57.5 199.19,115 V 230 L 99.6,287.5 0,230 V 115 Z M 0,230 99.6,287.5 v 115 L 0,460 -99.6,402.5 v -115 z M 99.6,402.5 199.19,460 V 575 L 99.6,632.5 0,575 V 460 Z M 0,575 99.6,632.5 v 115 L 0,805 -99.6,747.5 v -115 z m 199.19,-690 99.6,57.5 v 115 L 199.19,115 99.6,57.5 v -115 z m 99.6,172.5 99.59,57.5 V 230 L 298.79,287.5 199.19,230 V 115 Z m -99.6,172.5 99.6,57.5 v 115 L 199.19,460 99.6,402.5 v -115 z m 99.6,172.5 99.59,57.5 V 575 L 298.79,632.5 199.19,575 V 460 Z m -99.6,172.5 99.6,57.5 v 115 L 199.19,805 99.6,747.5 v -115 z m 199.19,-690 99.6,57.5 v 115 L 398.38,115 298.79,57.5 v -115 z m 99.6,172.5 99.59,57.5 V 230 L 497.98,287.5 398.38,230 V 115 Z m -99.6,172.5 99.6,57.5 v 115 l -99.6,57.5 -99.59,-57.5 v -115 z m 99.6,172.5 99.59,57.5 V 575 L 497.98,632.5 398.38,575 V 460 Z m -99.6,172.5 99.6,57.5 v 115 l -99.6,57.5 -99.59,-57.5 v -115 z m 199.19,-690 99.6,57.5 v 115 L 597.57,115 497.98,57.5 v -115 z m 99.6,172.5 99.6,57.5 v 115 l -99.6,57.5 -99.6,-57.5 V 115 Z m -99.6,172.5 99.6,57.5 v 115 l -99.6,57.5 -99.59,-57.5 v -115 z m 99.6,172.5 99.6,57.5 v 115 l -99.6,57.5 -99.6,-57.5 V 460 Z m -99.6,172.5 99.6,57.5 v 115 l -99.6,57.5 -99.59,-57.5 v -115 z"
         stroke="#03305d"
         stroke-width="2"
         id="path2" />
      <path
         d="m -11.380608,-115.12652 a 11.513785,11.373481 0 1 0 23.027571,0 11.513785,11.373481 0 1 0 -23.027571,0 z m 99.719393,56.867403 a 11.513787,11.373483 0 1 0 23.027575,0 11.513787,11.373483 0 1 0 -23.027575,0 z m 0,113.734806 a 11.513787,11.373483 0 1 0 23.027575,0 11.513787,11.373483 0 1 0 -23.027575,0 z M -11.380608,112.3431 a 11.513785,11.373481 0 1 0 23.027571,0 11.513785,11.373481 0 1 0 -23.027571,0 z M -111.1,55.475689 a 11.513785,11.373481 0 1 0 23.027571,0 11.513785,11.373481 0 1 0 -23.027571,0 z m 0,-113.734806 a 11.513785,11.373481 0 1 0 23.027571,0 11.513785,11.373481 0 1 0 -23.027571,0 z M 188.04816,112.3431 a 11.51379,11.373486 0 1 0 23.02758,0 11.51379,11.373486 0 1 0 -23.02758,0 z m 0,113.73479 a 11.51379,11.373486 0 1 0 23.02758,0 11.51379,11.373486 0 1 0 -23.02758,0 z M 88.338785,282.9453 a 11.513787,11.373483 0 1 0 23.027575,0 11.513787,11.373483 0 1 0 -23.027575,0 z m -99.719393,-56.86741 a 11.513785,11.373481 0 1 0 23.027571,0 11.513785,11.373481 0 1 0 -23.027571,0 z M 88.338785,396.6801 a 11.513787,11.373483 0 1 0 23.027575,0 11.513787,11.373483 0 1 0 -23.027575,0 z m -99.719393,56.86741 a 11.513785,11.373481 0 1 0 23.027571,0 11.513785,11.373481 0 1 0 -23.027571,0 z M -111.1,396.6801 a 11.513785,11.373481 0 1 0 23.027571,0 11.513785,11.373481 0 1 0 -23.027571,0 z m 0,-113.7348 a 11.513785,11.373481 0 1 0 23.027571,0 11.513785,11.373481 0 1 0 -23.027571,0 z m 299.14816,170.60221 a 11.51379,11.373486 0 1 0 23.02758,0 11.51379,11.373486 0 1 0 -23.02758,0 z m 0,113.7348 a 11.51379,11.373486 0 1 0 23.02758,0 11.51379,11.373486 0 1 0 -23.02758,0 z m -99.709375,56.86741 a 11.513787,11.373483 0 1 0 23.027575,0 11.513787,11.373483 0 1 0 -23.027575,0 z m -99.719393,-56.86741 a 11.513785,11.373481 0 1 0 23.027571,0 11.513785,11.373481 0 1 0 -23.027571,0 z m 99.719393,170.60222 a 11.513787,11.373483 0 1 0 23.027575,0 11.513787,11.373483 0 1 0 -23.027575,0 z m -99.719393,56.8674 a 11.513785,11.373481 0 1 0 23.027571,0 11.513785,11.373481 0 1 0 -23.027571,0 z M -111.1,737.88453 a 11.513785,11.373481 0 1 0 23.027571,0 11.513785,11.373481 0 1 0 -23.027571,0 z m 0,-113.73481 a 11.513785,11.373481 0 1 0 23.027571,0 11.513785,11.373481 0 1 0 -23.027571,0 z m 299.14816,-739.27624 a 11.51379,11.373486 0 1 0 23.02758,0 11.51379,11.373486 0 1 0 -23.02758,0 z m 99.7194,56.867403 a 11.513785,11.373481 0 1 0 23.02757,0 11.513785,11.373481 0 1 0 -23.02757,0 z m 0,113.734806 a 11.513785,11.373481 0 1 0 23.02757,0 11.513785,11.373481 0 1 0 -23.02757,0 z m 99.70938,56.867411 a 11.513785,11.373481 0 1 0 23.02757,0 11.513785,11.373481 0 1 0 -23.02757,0 z m 0,113.73479 a 11.513785,11.373481 0 1 0 23.02757,0 11.513785,11.373481 0 1 0 -23.02757,0 z m -99.70938,56.86741 a 11.513785,11.373481 0 1 0 23.02757,0 11.513785,11.373481 0 1 0 -23.02757,0 z m 0,113.7348 a 11.513785,11.373481 0 1 0 23.02757,0 11.513785,11.373481 0 1 0 -23.02757,0 z m 99.70938,56.86741 a 11.513785,11.373481 0 1 0 23.02757,0 11.513785,11.373481 0 1 0 -23.02757,0 z m 0,113.7348 a 11.513785,11.373481 0 1 0 23.02757,0 11.513785,11.373481 0 1 0 -23.02757,0 z m -99.70938,56.86741 a 11.513785,11.373481 0 1 0 23.02757,0 11.513785,11.373481 0 1 0 -23.02757,0 z m 0,113.73481 a 11.513785,11.373481 0 1 0 23.02757,0 11.513785,11.373481 0 1 0 -23.02757,0 z m -99.7194,56.8674 a 11.51379,11.373486 0 1 0 23.02758,0 11.51379,11.373486 0 1 0 -23.02758,0 z m 199.42878,-909.87845 a 11.513785,11.373481 0 1 0 23.02757,0 11.513785,11.373481 0 1 0 -23.02757,0 z m 99.71939,56.867403 a 11.513785,11.373481 0 1 0 23.02757,0 11.513785,11.373481 0 1 0 -23.02757,0 z m 0,113.734806 a 11.513785,11.373481 0 1 0 23.02757,0 11.513785,11.373481 0 1 0 -23.02757,0 z m 99.70938,56.867411 a 11.513785,11.373481 0 1 0 23.02757,0 11.513785,11.373481 0 1 0 -23.02757,0 z m 0,113.73479 a 11.513785,11.373481 0 1 0 23.02757,0 11.513785,11.373481 0 1 0 -23.02757,0 z m -99.70938,56.86741 a 11.513785,11.373481 0 1 0 23.02757,0 11.513785,11.373481 0 1 0 -23.02757,0 z m 0,113.7348 a 11.513785,11.373481 0 1 0 23.02757,0 11.513785,11.373481 0 1 0 -23.02757,0 z m 99.70938,56.86741 a 11.513785,11.373481 0 1 0 23.02757,0 11.513785,11.373481 0 1 0 -23.02757,0 z m 0,113.7348 a 11.513785,11.373481 0 1 0 23.02757,0 11.513785,11.373481 0 1 0 -23.02757,0 z m -99.70938,56.86741 a 11.513785,11.373481 0 1 0 23.02757,0 11.513785,11.373481 0 1 0 -23.02757,0 z m 0,113.73481 a 11.513785,11.373481 0 1 0 23.02757,0 11.513785,11.373481 0 1 0 -23.02757,0 z m -99.71939,56.8674 a 11.513785,11.373481 0 1 0 23.02757,0 11.513785,11.373481 0 1 0 -23.02757,0 z m 199.42877,-909.87845 a 11.513785,11.373481 0 1 0 23.02757,0 11.513785,11.373481 0 1 0 -23.02757,0 z m 99.71939,56.867403 a 11.513785,11.373481 0 1 0 23.02757,0 11.513785,11.373481 0 1 0 -23.02757,0 z m 0,113.734806 a 11.513785,11.373481 0 1 0 23.02757,0 11.513785,11.373481 0 1 0 -23.02757,0 z m 99.71939,56.867411 a 11.51379,11.373486 0 1 0 23.02758,0 11.51379,11.373486 0 1 0 -23.02758,0 z m 0,113.73479 a 11.51379,11.373486 0 1 0 23.02758,0 11.51379,11.373486 0 1 0 -23.02758,0 z M 686.6251,282.9453 a 11.513785,11.373481 0 1 0 23.02757,0 11.513785,11.373481 0 1 0 -23.02757,0 z m 0,113.7348 a 11.513785,11.373481 0 1 0 23.02757,0 11.513785,11.373481 0 1 0 -23.02757,0 z m 99.71939,56.86741 a 11.51379,11.373486 0 1 0 23.02758,0 11.51379,11.373486 0 1 0 -23.02758,0 z m 0,113.7348 a 11.51379,11.373486 0 1 0 23.02758,0 11.51379,11.373486 0 1 0 -23.02758,0 z m -99.71939,56.86741 a 11.513785,11.373481 0 1 0 23.02757,0 11.513785,11.373481 0 1 0 -23.02757,0 z m 0,113.73481 a 11.513785,11.373481 0 1 0 23.02757,0 11.513785,11.373481 0 1 0 -23.02757,0 z m -99.71939,56.8674 a 11.513785,11.373481 0 1 0 23.02757,0 11.513785,11.373481 0 1 0 -23.02757,0 z"
         fill="#03305d"
         id="path3"
         style="fill:#033565;fill-opacity:1;stroke:none;stroke-width:0.99508;stroke-opacity:1" />
    </g>
    <g
       id="g12"
       style="display:inline;fill:none;stroke:#0645cf;stroke-opacity:1"
       transform="matrix(0.99750488,0,0,0.50322979,4.0557462e-5,361.99964)">
      <path
         d="m 54.681853,-717.44845 53.432677,59.49508 v 118.99048 L 54.681853,-479.46801 1.24914,-538.96289 v -118.99048 z m 53.432677,535.45673 53.43267,59.49526 V -3.5063473 L 108.11453,55.989064 54.681853,-3.5063473 V -122.49646 Z m 0,713.94223 53.43267,59.49477 V 710.43589 L 108.11453,769.9308 54.681853,710.43589 V 591.44528 Z m 53.43267,-1249.39896 53.43288,59.49508 v 118.99048 l -53.43288,59.49488 -53.43267,-59.49488 v -118.99048 z m 53.43288,178.48556 53.43258,59.49488 v 118.99062 l -53.43258,59.49519 -53.43288,-59.49519 v -118.99062 z m -53.43288,892.42782 53.43288,59.49525 V 531.95051 L 161.5472,591.44528 108.11453,531.95051 V 412.96018 Z m 53.43288,178.48558 53.43258,59.49477 V 710.43589 L 214.98008,769.9308 161.5472,710.43589 V 591.44528 Z m 53.43259,-1249.39896 53.43269,59.49508 v 118.99048 l -53.43269,59.49488 -53.43259,-59.49488 v -118.99048 z m 53.43269,178.48556 53.4327,59.49488 v 118.99062 l -53.4327,59.49519 -53.43269,-59.49519 v -118.99062 z m -53.43269,178.4855 53.43269,59.49519 v 118.99048 l -53.43269,59.49526 -53.43258,-59.49526 V -300.9822 Z m 53.43269,178.48567 53.4327,59.49526 V -3.5063473 L 321.84536,55.989064 268.41267,-3.5063473 V -122.49646 Z m 0,356.97084 53.4327,59.49552 v 118.99029 l -53.4327,59.49525 -53.43269,-59.49525 V 234.47464 Z m -53.43269,178.48581 53.43269,59.49525 v 118.99033 l -53.43269,59.49477 -53.43258,-59.49477 V 412.96018 Z m 106.86538,-1070.91338 53.4327,59.49508 v 118.99048 l -53.4327,59.49488 -53.43269,-59.49488 v -118.99048 z m 53.4327,178.48556 53.43276,59.49488 v 118.99062 l -53.43276,59.49519 -53.4327,-59.49519 v -118.99062 z m -53.4327,535.4565427 53.4327,59.4954113 V 174.97912 l -53.4327,59.49552 -53.43269,-59.49552 V 55.989064 Z m 0,356.9712773 53.4327,59.49525 v 118.99033 l -53.4327,59.49477 -53.43269,-59.49477 V 412.96018 Z m 160.29815,-892.42782 53.4326,59.49488 v 118.99062 l -53.4326,59.49519 -53.43269,-59.49519 v -118.99062 z m 0,356.97117 53.4326,59.49526 V -3.5063473 L 535.5762,55.989064 482.14351,-3.5063473 V -122.49646 Z M 482.14351,-3.5063473 535.5762,55.989064 V 174.97912 l -53.43269,59.49552 -53.43276,-59.49552 V 55.989064 Z M 589.0088,-717.44845 l 53.43284,59.49508 v 118.99048 l -53.43284,59.49488 -53.4326,-59.49488 v -118.99048 z m 0,356.97106 53.43285,59.49519 v 118.99048 l -53.43285,59.49526 -53.4326,-59.49526 V -300.9822 Z m 0,356.9710427 53.43285,59.4954113 V 174.97912 L 589.0088,234.47464 535.5762,174.97912 V 55.989064 Z"
         stroke="url(&quot;#SvgjsLinearGradient2055&quot;)"
         stroke-width="2.41338"
         id="use11-6"
         style="display:inline;fill:none;fill-opacity:1;stroke:#0b3898;stroke-opacity:1"
         inkscape:tile-x0="-410"
         inkscape:tile-y0="285.99999" />
    </g>
    <g
       id="g37"
       style="display:inline;fill:none;stroke:#3273e4;stroke-opacity:1;fill-opacity:0.24352331"
       transform="matrix(0.99688061,0,0,0.97908858,1.7942054,0.01118898)">
      <path
         d="M 23.771585,1.1608664 48.455735,15.260855 V 43.460818 L 23.771585,57.560799 -0.9125391,43.460818 V 15.260855 Z m 0,253.7997636 24.68415,14.09976 v 28.20064 l -24.68415,14.09945 -24.6841241,-14.09945 v -28.20064 z m 0,84.60041 24.68415,14.09929 v 28.2004 l -24.68415,14.09932 -24.6841241,-14.09932 v -28.2004 z m 24.68415,126.89963 24.684135,14.09974 v 28.20007 l -24.684135,14.10026 -24.68415,-14.10026 v -28.20007 z m -24.68415,42.29981 24.68415,14.10026 v 28.19979 l -24.68415,14.10003 -24.6841241,-14.10003 v -28.19979 z m 74.052402,-296.10012 24.693293,14.10019 v 28.20008 L 97.823987,269.06039 73.13987,254.96063 v -28.20008 z m -24.684117,42.30027 24.684117,14.09976 v 28.20064 L 73.13987,311.36048 48.455735,297.26103 v -28.20064 z m 0,253.79985 24.684117,14.10026 v 28.19979 L 73.13987,565.16056 48.455735,551.06053 v -28.19979 z m 24.684117,42.30005 24.693293,14.10003 v 28.19977 L 97.823987,607.46064 73.13987,593.36033 v -28.19977 z m 49.377663,-253.7995 24.68412,14.09945 v 28.20056 l -24.68412,14.09929 -24.68437,-14.09929 v -28.20056 z m 0,169.19964 24.68412,14.09974 v 28.20007 l -24.68412,14.10026 -24.68437,-14.10026 V 480.56041 Z M 171.88577,1.1608664 196.57038,15.260855 V 43.460818 L 171.88577,57.560799 147.20165,43.460818 V 15.260855 Z m 0,253.7997636 24.68461,14.09976 v 28.20064 l -24.68461,14.09945 -24.68412,-14.09945 v -28.20064 z m 0,253.79985 24.68461,14.10026 v 28.19979 l -24.68461,14.10003 -24.68412,-14.10003 V 522.86074 Z M 221.25433,1.1608664 245.9383,15.260855 V 43.460818 L 221.25433,57.560799 196.57038,43.460818 V 15.260855 Z M 245.9383,43.460818 270.63174,57.560799 V 85.760807 L 245.9383,99.860756 221.25433,85.760807 V 57.560799 Z m -24.68397,42.299989 24.68397,14.099949 v 28.199624 l -24.68397,14.10031 -24.68395,-14.10031 V 99.860756 Z m 24.68397,211.500223 24.69344,14.09945 v 28.20056 l -24.69344,14.09929 -24.68397,-14.09929 v -28.20056 z m -24.68397,126.89965 24.68397,14.09936 v 28.20063 l -24.68397,14.09974 -24.68395,-14.09974 v -28.20063 z m 24.68397,211.49949 24.69344,14.1003 v 28.19959 l -24.69344,14.10055 -24.68397,-14.10055 v -28.19959 z m 49.37773,-507.59979 24.68384,14.10031 v 28.19987 l -24.68384,14.10002 -24.68429,-14.10002 v -28.19987 z m 0,84.59998 24.68384,14.10019 v 28.20008 l -24.68384,14.09976 -24.68429,-14.09976 v -28.20008 z m -24.68429,380.69997 24.68429,14.10031 v 28.19953 l -24.68429,14.1003 -24.69344,-14.1003 v -28.19953 z m 0,84.59973 24.68429,14.10055 v 28.19946 L 270.63174,734.3604 245.9383,720.26007 V 692.06061 Z M 319.99987,1.1608664 344.68459,15.260855 V 43.460818 L 319.99987,57.560799 295.31603,43.460818 V 15.260855 Z m 24.68472,380.6998636 24.68388,14.09932 v 28.20063 l -24.68388,14.09936 -24.68472,-14.09936 v -28.20063 z m -24.68472,42.29995 24.68472,14.09936 v 28.20063 l -24.68472,14.09974 -24.68384,-14.09974 v -28.20063 z m 0,169.19965 24.68472,14.10031 v 28.19953 l -24.68472,14.1003 -24.68384,-14.1003 V 607.46064 Z M 394.0528,43.460818 418.73651,57.560799 V 85.760807 L 394.0528,99.860756 369.36847,85.760807 V 57.560799 Z m 0,338.399912 24.68371,14.09932 v 28.20063 l -24.68371,14.09936 -24.68433,-14.09936 v -28.20063 z m 0,253.79944 24.68371,14.1003 v 28.19959 L 394.0528,692.06061 369.36847,677.96006 V 649.76047 Z M 443.43037,43.460818 468.11422,57.560799 V 85.760807 L 443.43037,99.860756 418.73651,85.760807 V 57.560799 Z m -24.69386,126.899742 24.69386,14.10002 v 28.19978 l -24.69386,14.10019 -24.68371,-14.10019 v -28.19978 z m 24.69386,42.2998 24.68385,14.10019 v 28.20008 l -24.68385,14.09976 -24.69386,-14.09976 v -28.20008 z m -24.69386,126.90068 24.69386,14.09929 v 28.2004 l -24.69386,14.09932 -24.68371,-14.09932 v -28.2004 z M 492.79864,43.460818 517.48276,57.560799 V 85.760807 L 492.79864,99.860756 468.11422,85.760807 V 57.560799 Z m -24.68442,126.899742 24.68442,14.10002 v 28.19978 l -24.68442,14.10019 -24.68385,-14.10019 v -28.19978 z m 0,84.60007 24.68442,14.09976 v 28.20064 l -24.68442,14.09945 -24.68385,-14.09945 v -28.20064 z m 0,84.60041 24.68442,14.09929 v 28.2004 l -24.68442,14.09932 -24.68385,-14.09932 v -28.2004 z m 0,338.39902 24.68442,14.10055 v 28.19946 L 468.11422,734.3604 443.43037,720.26007 V 692.06061 Z M 542.16708,43.460818 566.851,57.560799 V 85.760807 L 542.16708,99.860756 517.48276,85.760807 V 57.560799 Z m -24.68432,42.299989 24.68432,14.099949 v 28.199624 l -24.68432,14.10031 -24.68412,-14.10031 V 99.860756 Z m 24.68432,126.899553 24.68392,14.10019 v 28.20008 l -24.68392,14.09976 -24.68432,-14.09976 v -28.20008 z m -24.68432,42.30027 24.68432,14.09976 v 28.20064 l -24.68432,14.09945 -24.68412,-14.09945 v -28.20064 z m 24.68432,126.9001 24.68392,14.09932 v 28.20063 l -24.68392,14.09936 -24.68432,-14.09936 v -28.20063 z m 0,84.59994 24.68392,14.09974 v 28.20007 l -24.68392,14.10026 -24.68432,-14.10026 v -28.20007 z m 0,84.59986 24.68392,14.10003 v 28.19977 l -24.68392,14.10031 -24.68432,-14.10031 V 565.16056 Z M 591.53507,43.460818 616.2288,57.560799 V 85.760807 L 591.53507,99.860756 566.851,85.760807 V 57.560799 Z M 566.851,170.36056 l 24.68407,14.10002 v 28.19978 L 566.851,226.76055 542.16708,212.66036 v -28.19978 z m 24.68407,42.2998 24.69373,14.10019 v 28.20008 L 591.53507,269.06039 566.851,254.96063 v -28.20008 z m -24.68407,42.30027 24.68407,14.09976 v 28.20064 L 566.851,311.36048 542.16708,297.26103 v -28.20064 z m 0,169.20005 24.68407,14.09936 v 28.20063 L 566.851,480.56041 542.16708,466.46067 V 438.26004 Z M 640.91282,43.460818 665.59733,57.560799 V 85.760807 L 640.91282,99.860756 616.2288,85.760807 V 57.560799 Z m -24.68402,126.899742 24.68402,14.10002 v 28.19978 l -24.68402,14.10019 -24.69373,-14.10019 v -28.19978 z m 0,84.60007 24.68402,14.09976 v 28.20064 l -24.68402,14.09945 -24.69373,-14.09945 v -28.20064 z m 0,84.60041 24.68402,14.09929 v 28.2004 l -24.68402,14.09932 -24.69373,-14.09932 v -28.2004 z m 24.68402,126.89963 24.68451,14.09974 v 28.20007 l -24.68451,14.10026 -24.68402,-14.10026 v -28.20007 z m -24.68402,211.49939 24.68402,14.10055 v 28.19946 L 616.2288,734.3604 591.53507,720.26007 v -28.19946 z"
         stroke="rgba(6, 80, 156, 0.93)"
         stroke-width="1.89013"
         id="path4"
         style="display:inline;fill:none;stroke:#3273e4;stroke-opacity:1;fill-opacity:0.24352331"
         inkscape:tile-cx="320.85"
         inkscape:tile-cy="367.69111"
         inkscape:tile-w="641.69999"
         inkscape:tile-h="735.39448"
         inkscape:tile-x0="3.8114319e-08"
         inkscape:tile-y0="-0.0061283841" />
      <path
         d="m -616.20373,1.1395992 24.60641,14.1002658 v 28.200513 l -24.60641,14.100258 -24.60639,-14.100258 V 15.239865 Z m 0,253.8047708 24.60641,14.10004 v 28.20119 l -24.60641,14.09972 -24.60639,-14.09972 v -28.20119 z m 0,84.60207 24.60641,14.09956 v 28.20095 l -24.60641,14.09959 -24.60639,-14.09959 V 353.646 Z m 24.60641,126.90211 24.60641,14.10001 v 28.20063 l -24.60641,14.10053 -24.60641,-14.10053 v -28.20063 z m -24.60641,42.30064 24.60641,14.10053 v 28.20034 l -24.60641,14.10031 -24.60639,-14.10031 v -28.20034 z m 73.81921,-296.10592 24.61552,14.10046 v 28.20064 l -24.61552,14.10004 -24.60639,-14.10004 v -28.20064 z m -24.60639,42.3011 24.60639,14.10004 v 28.20119 l -24.60639,14.09972 -24.60641,-14.09972 v -28.20119 z m 0,253.80482 24.60639,14.10053 v 28.20034 l -24.60639,14.10031 -24.60641,-14.10031 v -28.20034 z m 24.60639,42.30087 24.61552,14.10031 v 28.20032 l -24.61552,14.10059 -24.60639,-14.10059 v -28.20032 z m 49.22216,-253.80446 24.60638,14.09972 v 28.20112 L -493.16236,353.646 -517.769,339.54644 v -28.20112 z m 0,169.20295 24.60638,14.10001 v 28.20063 l -24.60638,14.10053 -24.60664,-14.10053 V 480.54856 Z M -468.55598,1.1395992 -443.9491,15.239865 v 28.200513 l -24.60688,14.100258 -24.60638,-14.100258 V 15.239865 Z m 0,253.8047708 24.60688,14.10004 v 28.20119 l -24.60688,14.09972 -24.60638,-14.09972 v -28.20119 z m 0,253.80482 24.60688,14.10053 v 28.20034 l -24.60688,14.10031 -24.60638,-14.10031 V 522.84972 Z M -419.34289,1.1395992 -394.73665,15.239865 V 43.440378 L -419.34289,57.540636 -443.9491,43.440378 V 15.239865 Z m 24.60624,42.3007788 24.61568,14.100258 v 28.200556 l -24.61568,14.100229 -24.60624,-14.100229 V 57.540636 Z m -24.60624,42.300814 24.60624,14.100229 v 28.200209 l -24.60624,14.10059 -24.60621,-14.10059 V 99.841421 Z m 24.60624,211.504408 24.61568,14.09972 v 28.20112 l -24.61568,14.09956 -24.60624,-14.09956 v -28.20112 z m -24.60624,126.90213 24.60624,14.09963 v 28.20119 l -24.60624,14.10001 -24.60621,-14.10001 v -28.20119 z m 24.60624,211.50362 24.61568,14.10059 v 28.20013 l -24.61568,14.10083 -24.60624,-14.10083 v -28.20013 z m 49.22223,-507.60972 24.60612,14.10059 v 28.20042 l -24.60612,14.10029 -24.60655,-14.10029 v -28.20042 z m 0,84.60164 24.60612,14.10046 v 28.20064 l -24.60612,14.10004 -24.60655,-14.10004 v -28.20064 z m -24.60655,380.70742 24.60655,14.10059 v 28.20007 l -24.60655,14.10059 -24.61568,-14.10059 v -28.20007 z m 0,84.60138 24.60655,14.10083 v 28.20001 l -24.60655,14.10061 -24.61568,-14.10061 V 692.0529 Z M -320.9083,1.1395992 -296.30133,15.239865 V 43.440378 L -320.9083,57.540636 -345.51442,43.440378 V 15.239865 Z m 24.60697,380.7073508 24.60616,14.09959 v 28.20119 l -24.60616,14.09963 -24.60697,-14.09963 v -28.20119 z m -24.60697,42.30078 24.60697,14.09963 v 28.20119 l -24.60697,14.10001 -24.60612,-14.10001 v -28.20119 z m 0,169.20296 24.60697,14.10059 v 28.20007 l -24.60697,14.10059 -24.60612,-14.10059 v -28.20007 z m 73.81972,-549.910312 24.60602,14.100258 v 28.200556 l -24.60602,14.100229 -24.60659,-14.100229 V 57.540636 Z m 0,338.406572 24.60602,14.09959 v 28.20119 l -24.60602,14.09963 -24.60659,-14.09963 v -28.20119 z m 0,253.8044 24.60602,14.10059 v 28.20013 l -24.60602,14.10083 -24.60659,-14.10083 v -28.20013 z m 49.22209,-592.210972 24.60606,14.100258 v 28.200556 l -24.60606,14.100229 -24.61607,-14.100229 V 57.540636 Z m -24.61607,126.902262 24.61607,14.10029 v 28.20034 l -24.61607,14.10046 -24.60602,-14.10046 v -28.20034 z m 24.61607,42.30063 24.60606,14.10046 v 28.20064 l -24.60606,14.10004 -24.61607,-14.10004 v -28.20064 z m -24.61607,126.90317 24.61607,14.09956 v 28.20095 l -24.61607,14.09959 -24.60602,-14.09959 V 353.646 Z m 73.8289,-296.106062 24.60636,14.100258 v 28.200556 l -24.60636,14.100229 -24.60677,-14.100229 V 57.540636 Z m -24.60677,126.902262 24.60677,14.10029 v 28.20034 l -24.60677,14.10046 -24.60606,-14.10046 v -28.20034 z m 0,84.60173 24.60677,14.10004 v 28.20119 l -24.60677,14.09972 -24.60606,-14.09972 v -28.20119 z m 0,84.60207 24.60677,14.09956 v 28.20095 l -24.60677,14.09959 -24.60606,-14.09959 V 353.646 Z m 0,338.40563 24.60677,14.10083 v 28.20001 l -24.60677,14.10061 -24.60606,-14.10061 V 692.0529 Z M -99.440726,43.440378 -74.834555,57.540636 V 85.741192 L -99.440726,99.841421 -124.0473,85.741192 V 57.540636 Z m -24.606574,42.300814 24.606574,14.100229 v 28.200209 l -24.606574,14.10059 -24.60636,-14.10059 V 99.841421 Z m 24.606574,126.902078 24.606171,14.10046 v 28.20064 l -24.606171,14.10004 -24.606574,-14.10004 v -28.20064 z m -24.606574,42.3011 24.606574,14.10004 v 28.20119 l -24.606574,14.09972 -24.60636,-14.09972 v -28.20119 z m 24.606574,126.90258 24.606171,14.09959 v 28.20119 l -24.606171,14.09963 -24.606574,-14.09963 v -28.20119 z m 0,84.6016 24.606171,14.10001 v 28.20063 l -24.606171,14.10053 -24.606574,-14.10053 v -28.20063 z m 0,84.60151 24.606171,14.10031 v 28.20032 L -99.440726,607.45128 -124.0473,593.35069 V 565.15037 Z M -50.228189,43.440378 -25.612224,57.540636 V 85.741192 L -50.228189,99.841421 -74.834555,85.741192 V 57.540636 Z m -24.606366,126.902262 24.606366,14.10029 v 28.20034 l -24.606366,14.10046 -24.606171,-14.10046 v -28.20034 z m 24.606366,42.30063 24.615965,14.10046 v 28.20064 l -24.615965,14.10004 -24.606366,-14.10004 v -28.20064 z m -24.606366,42.3011 24.606366,14.10004 v 28.20119 l -24.606366,14.09972 -24.606171,-14.09972 v -28.20119 z m 0,169.20336 24.606366,14.09963 v 28.20119 l -24.606366,14.10001 -24.606171,-14.10001 V 438.24736 Z M -1.0059565,43.440378 23.600808,57.540636 V 85.741192 L -1.0059565,99.841421 -25.612224,85.741192 V 57.540636 Z M -25.612224,170.34264 -1.0059565,184.44293 v 28.20034 l -24.6062675,14.10046 -24.615965,-14.10046 v -28.20034 z m 0,84.60173 24.6062675,14.10004 V 297.2456 L -25.612224,311.34532 -50.228189,297.2456 v -28.20119 z m 0,84.60207 24.6062675,14.09956 v 28.20095 L -25.612224,395.94654 -50.228189,381.84695 V 353.646 Z m 24.6062675,126.90211 24.6067645,14.10001 v 28.20063 L -1.0059565,522.84972 -25.612224,508.74919 V 480.54856 Z M -25.612224,677.95207 -1.0059565,692.0529 v 28.20001 L -25.612224,734.35352 -50.228189,720.25291 V 692.0529 Z"
         stroke="rgba(6, 80, 156, 0.93)"
         stroke-width="1.88717"
         id="path4-9"
         style="display:inline;fill:none;fill-opacity:0.243523;stroke:#3273e4;stroke-opacity:1"
         inkscape:tile-cx="320.85"
         inkscape:tile-cy="367.69111"
         inkscape:tile-w="641.69999"
         inkscape:tile-h="735.39448"
         inkscape:tile-x0="3.8114319e-08"
         inkscape:tile-y0="-0.0061283841" />
    </g>
  </g>
  <defs
     id="defs5">
    <mask
       id="SvgjsMask2054">
      <rect
         width="640"
         height="720"
         fill="#ffffff"
         id="rect4"
         x="0"
         y="0" />
    </mask>
    <linearGradient
       x1="-20.032"
       y1="20.016001"
       x2="660.03198"
       y2="699.98401"
       gradientUnits="userSpaceOnUse"
       id="SvgjsLinearGradient2055">
      <stop
         stop-color="rgba(0, 35, 80, 0.91)"
         offset="0"
         id="stop4"
         style="stop-color:#450583;stop-opacity:1;" />
      <stop
         stop-color="rgba(52, 98, 158, 0.56)"
         offset="1"
         id="stop5" />
    </linearGradient>
  </defs>
</svg>
