<?xml version="1.0" encoding="UTF-8" standalone="no"?>
<!-- Created with Inkscape (http://www.inkscape.org/) -->

<svg
        width="720"
        height="480"
        viewBox="0 0 190.49997 126.99999"
        version="1.1"
        id="svg1"
        inkscape:version="1.3.2 (091e20e, 2023-11-25, custom)"
        sodipodi:docname="logo.svg"
        xml:space="preserve"
        xmlns:inkscape="http://www.inkscape.org/namespaces/inkscape"
        xmlns:sodipodi="http://sodipodi.sourceforge.net/DTD/sodipodi-0.dtd"
        xmlns="http://www.w3.org/2000/svg"
><sodipodi:namedview
     id="namedview1"
     pagecolor="#ffffff"
     bordercolor="#000000"
     borderopacity="0.25"
     inkscape:showpageshadow="false"
     inkscape:pageopacity="0.0"
     inkscape:pagecheckerboard="0"
     inkscape:deskcolor="#d1d1d1"
     inkscape:document-units="mm"
     inkscape:zoom="0.56630543"
     inkscape:cx="422.91666"
     inkscape:cy="478.54035"
     inkscape:window-width="1552"
     inkscape:window-height="924"
     inkscape:window-x="2183"
     inkscape:window-y="169"
     inkscape:window-maximized="0"
     inkscape:current-layer="layer1"
     showborder="false"
     borderlayer="false" /><defs
     id="defs1" /><g
     inkscape:label="Layer 1"
     inkscape:groupmode="layer"
     id="layer1"
     transform="translate(-10.278611,-60.737248)"><path
       id="path10"
       style="fill:#da08eb;fill-opacity:1;stroke:none;stroke-width:0.185129"
       d="m 58.362851,70.856995 a 39.088627,35.074096 76.212901 0 0 -4.57699,0.433048 39.088627,35.074096 76.212901 0 0 -27.5549,44.268107 39.088627,35.074096 76.212901 0 0 13.93196,24.40678 30.173406,28.087715 61.014603 0 1 10.38025,-17.00568 15.857618,19.491657 0 0 1 -5.85443,-15.08177 15.857618,19.491657 0 0 1 15.85743,-19.491839 15.857618,19.491657 0 0 1 15.85743,19.491839 15.857618,19.491657 0 0 1 -2.64841,10.75335 30.173406,28.087715 61.014603 0 1 17.4594,12.55789 39.088627,35.074096 76.212901 0 0 4.224027,-27.3048 39.088627,35.074096 76.212901 0 0 -27.874267,-31.902446 39.088627,35.074096 76.212901 0 0 -9.2015,-1.124479 z" /><path
       id="path9"
       style="fill:#3ef3f4;fill-opacity:1;stroke:none;stroke-width:0.179262"
       d="m 144.99683,104.23791 a 40.499052,42.634909 48.026513 0 0 -5.94331,0.56172 40.499052,42.634909 48.026513 0 0 -16.77055,6.55154 40.499052,42.634909 48.026513 0 0 -19.8422,41.21661 40.499052,42.634909 48.026513 0 0 9.55445,21.40127 31.06803,23.92354 2.6642714 0 1 6.36602,-6.43785 31.06803,23.92354 2.6642714 0 1 13.08861,-5.33042 17.013905,22.134594 0 0 1 -7.14272,-17.98288 17.013905,22.134594 0 0 1 17.01395,-22.13457 17.013905,22.134594 0 0 1 17.01343,22.13457 17.013905,22.134594 0 0 1 -8.25376,18.94871 31.06803,23.92354 2.6642714 0 1 18.55339,14.45855 40.499052,42.634909 48.026513 0 0 16.63775,-38.80487 40.499052,42.634909 48.026513 0 0 -40.27506,-34.58238 z" /></g></svg>
